#!OML:ASF F:\VICON\USERDATA\INSTALL\rory3\rory3.ASF
:FULLY-SPECIFIED
:DEGREES
1154
root 12.5983 17.8365 1.27296 502.653 -88.6019 227.9
lowerback 4.80083 -0.671648 0.934513
upperback 1.67224 -0.907291 4.81015
thorax -0.906005 -0.512443 4.49235
lowerneck -13.0313 -3.08388 -10.793
upperneck 39.3528 -4.29316 1.88779
head 16.7239 -3.71797 1.82487
rclavicle 0 6.83819e-014
rhumerus -26.9492 -1.67234 -78.832
rradius 34.3521
rwrist 26.1222
rhand -20.0914 5.42286
rfingers 7.12502
rthumb 6.25158 -24.4649
lclavicle 0 6.83819e-014
lhumerus -33.2295 7.33229 84.34
lradius 35.4804
lwrist -9.80362
lhand -12.0512 23.7619
lfingers 7.12502
lthumb 14.0077 53.27
rfemur -9.94646 0.841175 24.5495
rtibia 22.9632
rfoot -19.411 2.355
rtoes -6.3794
lfemur -34.218 5.58488 -22.4294
ltibia 24.732
lfoot -6.3985 12.3335
ltoes -5.41297
1155
root 12.5372 17.8318 1.28322 493.917 -88.6245 236.66
lowerback 4.70149 -0.676072 1.05864
upperback 1.6723 -0.911974 4.82149
thorax -0.851798 -0.515233 4.43205
lowerneck -13.0208 -3.07152 -10.7199
upperneck 39.4164 -4.24036 1.72785
head 16.7445 -3.71025 1.74974
rclavicle 2.38542e-015 4.77083e-015
rhumerus -27.0965 -1.72411 -78.8551
rradius 34.7653
rwrist 25.5744
rhand -19.4092 5.27076
rfingers 7.12502
rthumb 6.91012 -24.5965
lclavicle 2.38542e-015 4.77083e-015
lhumerus -33.2356 7.2586 84.3547
lradius 35.6799
lwrist -9.76459
lhand -12.0319 23.5092
lfingers 7.12502
lthumb 14.0263 53.0159
rfemur -9.69296 0.786895 24.6881
rtibia 22.8596
rfoot -19.5352 2.29941
rtoes -4.78806
lfemur -34.1748 5.82151 -22.6269
ltibia 24.6412
lfoot -6.19711 12.8885
ltoes -4.90372
1156
root 12.4782 17.8251 1.29675 489.591 -88.7561 241.057
lowerback 4.61076 -0.689808 1.0665
upperback 1.64438 -0.930328 4.78918
thorax -0.829316 -0.523265 4.39323
lowerneck -13.1043 -3.0481 -10.7761
upperneck 39.5434 -4.16526 1.6778
head 16.8297 -3.6999 1.74832
rclavicle 9.14409e-015 -4.77083e-015
rhumerus -27.2545 -1.69968 -78.8718
rradius 35.1224
rwrist 25.2873
rhand -19.2429 5.1099
rfingers 7.12502
rthumb 7.07065 -24.752
lclavicle 9.14409e-015 -4.77083e-015
lhumerus -33.3041 7.13305 84.3855
lradius 35.9866
lwrist -10.0714
lhand -11.2929 23.4761
lfingers 7.12502
lthumb 14.7384 52.9321
rfemur -9.49178 0.740634 24.63
rtibia 22.689
rfoot -19.608 2.28993
rtoes -2.25467
lfemur -34.2139 5.90284 -22.9693
ltibia 24.7027
lfoot -6.0658 13.4208
ltoes -5.63996
1157
root 12.4188 17.8072 1.31104 480.466 -88.8538 250.233
lowerback 4.52935 -0.72485 1.08501
upperback 1.63155 -0.978168 4.78864
thorax -0.794076 -0.546985 4.38311
lowerneck -13.1709 -3.01877 -10.8669
upperneck 39.6351 -4.09798 1.70292
head 16.8953 -3.68609 1.78608
rclavicle -5.1684e-015 1.59028e-015
rhumerus -27.3987 -1.75893 -78.8592
rradius 35.4418
rwrist 25.3528
rhand -19.0638 5.25972
rfingers 7.12502
rthumb 7.24355 -24.5963
lclavicle -5.1684e-015 1.59028e-015
lhumerus -33.4705 6.49971 84.7672
lradius 36.635
lwrist -8.82368
lhand -11.6837 24.4448
lfingers 7.12502
lthumb 14.3618 53.928
rfemur -9.35545 0.362788 24.669
rtibia 22.6537
rfoot -19.7328 2.07538
rtoes -4.3615
lfemur -34.2159 6.22582 -23.3456
ltibia 24.6684
lfoot -5.80048 13.5108
ltoes -6.32931
1158
root 12.3568 17.796 1.32809 469.321 -88.8884 261.405
lowerback 4.42403 -0.740312 1.19802
upperback 1.62384 -0.996551 4.73944
thorax -0.744756 -0.555219 4.26641
lowerneck -13.1189 -3.01551 -10.9253
upperneck 39.6414 -4.09559 1.74246
head 16.8889 -3.68878 1.81563
rclavicle 7.95139e-015 -1.43125e-014
rhumerus -27.5481 -2.0583 -78.8529
rradius 35.7449
rwrist 25.3608
rhand -18.785 5.46181
rfingers 7.12502
rthumb 7.5127 -24.3848
lclavicle 7.95139e-015 -1.43125e-014
lhumerus -33.5923 6.24552 84.8835
lradius 37.0394
lwrist -8.38754
lhand -11.6642 24.4675
lfingers 7.12502
lthumb 14.3806 53.9494
rfemur -9.1713 0.285895 24.6544
rtibia 22.6799
rfoot -19.8845 1.85115
rtoes -7.01573
lfemur -34.1289 6.61932 -23.7017
ltibia 24.5977
lfoot -5.52879 13.3684
ltoes -5.69701
1159
root 12.2915 17.8013 1.34673 461.833 -88.9053 269.068
lowerback 4.16075 -0.716367 1.29472
upperback 1.57823 -0.966147 4.66697
thorax -0.649485 -0.537996 4.12973
lowerneck -13.1246 -3.04368 -10.9394
upperneck 39.6838 -4.13116 1.73713
head 16.9179 -3.70697 1.80907
rclavicle 5.56597e-015 3.18055e-015
rhumerus -27.5385 -2.00147 -78.9356
rradius 35.6571
rwrist 24.9901
rhand -18.9419 5.50114
rfingers 7.12502
rthumb 7.36121 -24.3508
lclavicle 5.56597e-015 3.18055e-015
lhumerus -33.6332 6.28974 84.8516
lradius 37.185
lwrist -8.75016
lhand -11.6053 24.0169
lfingers 7.12502
lthumb 14.4374 53.4947
rfemur -9.06899 0.637303 24.5016
rtibia 22.6584
rfoot -19.9946 2.10762
rtoes -4.56763
lfemur -34.131 6.7591 -23.953
ltibia 24.5855
lfoot -5.36194 13.315
ltoes -4.62384
